<svg xmlns="http://www.w3.org/2000/svg" xmlns:xlink="http://www.w3.org/1999/xlink" width="500" zoomAndPan="magnify" viewBox="0 0 375 374.999991" height="500" preserveAspectRatio="xMidYMid meet" version="1.0"><defs><clipPath id="2264bd39cb"><path d="M 0.75 0.296875 L 338.597656 0.296875 L 338.597656 302.703125 L 0.75 302.703125 Z M 0.75 0.296875 " clip-rule="nonzero"/></clipPath><clipPath id="74bfc33b72"><path d="M 30.75 0.296875 L 308.25 0.296875 C 316.207031 0.296875 323.835938 3.457031 329.464844 9.082031 C 335.089844 14.707031 338.25 22.339844 338.25 30.296875 L 338.25 272.703125 C 338.25 280.660156 335.089844 288.292969 329.464844 293.917969 C 323.835938 299.542969 316.207031 302.703125 308.25 302.703125 L 30.75 302.703125 C 22.792969 302.703125 15.164062 299.542969 9.535156 293.917969 C 3.910156 288.292969 0.75 280.660156 0.75 272.703125 L 0.75 30.296875 C 0.75 22.339844 3.910156 14.707031 9.535156 9.082031 C 15.164062 3.457031 22.792969 0.296875 30.75 0.296875 Z M 30.75 0.296875 " clip-rule="nonzero"/></clipPath><clipPath id="d88b9582d2"><path d="M 0.75 0.296875 L 338.398438 0.296875 L 338.398438 302.703125 L 0.75 302.703125 Z M 0.75 0.296875 " clip-rule="nonzero"/></clipPath><clipPath id="1f17024dc1"><path d="M 30.75 0.296875 L 308.25 0.296875 C 316.207031 0.296875 323.835938 3.457031 329.464844 9.082031 C 335.089844 14.707031 338.25 22.339844 338.25 30.296875 L 338.25 272.703125 C 338.25 280.660156 335.089844 288.292969 329.464844 293.917969 C 323.835938 299.542969 316.207031 302.703125 308.25 302.703125 L 30.75 302.703125 C 22.792969 302.703125 15.164062 299.542969 9.535156 293.917969 C 3.910156 288.292969 0.75 280.660156 0.75 272.703125 L 0.75 30.296875 C 0.75 22.339844 3.910156 14.707031 9.535156 9.082031 C 15.164062 3.457031 22.792969 0.296875 30.75 0.296875 Z M 30.75 0.296875 " clip-rule="nonzero"/></clipPath><clipPath id="88575c7125"><rect x="0" width="339" y="0" height="303"/></clipPath><clipPath id="901a0f2068"><path d="M 16.414062 25 L 322.695312 25 L 322.695312 288.550781 L 16.414062 288.550781 Z M 16.414062 25 " clip-rule="nonzero"/></clipPath><clipPath id="da3157278c"><path d="M 73 14.332031 L 227 14.332031 L 227 202 L 73 202 Z M 73 14.332031 " clip-rule="nonzero"/></clipPath><clipPath id="eca6edd4be"><rect x="0" width="339" y="0" height="303"/></clipPath></defs><g transform="matrix(1, 0, 0, 1, 18, 36)"><g clip-path="url(#eca6edd4be)"><g clip-path="url(#2264bd39cb)"><g clip-path="url(#74bfc33b72)"><g transform="matrix(1, 0, 0, 1, 0.000000000000003553, 0)"><g clip-path="url(#88575c7125)"><g clip-path="url(#d88b9582d2)"><g clip-path="url(#1f17024dc1)"><path fill="#ffffff" d="M 0.75 0.296875 L 338.597656 0.296875 L 338.597656 302.703125 L 0.75 302.703125 Z M 0.75 0.296875 " fill-opacity="1" fill-rule="nonzero"/></g></g></g></g></g></g><g clip-path="url(#901a0f2068)"><path fill="#124aff" d="M 164.191406 69.515625 C 166.554688 71.414062 166.929688 74.867188 165.027344 77.230469 C 163.128906 79.59375 159.675781 79.964844 157.316406 78.066406 L 107.136719 37.539062 L 61.066406 75.011719 L 61.066406 194.105469 C 61.066406 196.742188 59.203125 198.949219 56.71875 199.484375 C 47.566406 202.003906 39.941406 207.585938 34.78125 214.902344 C 29.566406 222.292969 26.859375 231.460938 27.625 241.042969 C 28.386719 250.617188 32.511719 259.238281 38.832031 265.707031 C 45.148438 272.171875 53.664062 276.492188 63.210938 277.480469 C 72.769531 278.46875 82 275.976562 89.511719 270.933594 C 97.015625 265.894531 102.8125 258.296875 105.519531 249.082031 C 106.21875 246.691406 108.410156 245.140625 110.78125 245.144531 L 110.78125 245.128906 L 200.953125 245.128906 L 217.117188 228.96875 C 219.261719 226.820312 222.742188 226.820312 224.890625 228.96875 C 225.128906 229.207031 225.34375 229.464844 225.527344 229.734375 L 239.121094 245.878906 L 248.730469 233.386719 C 250.582031 230.992188 254.023438 230.550781 256.417969 232.402344 C 256.667969 232.59375 256.894531 232.804688 257.101562 233.027344 L 257.105469 233.023438 L 269.207031 246.128906 L 280.695312 231.320312 C 282.542969 228.925781 285.992188 228.480469 288.386719 230.332031 C 288.734375 230.605469 289.042969 230.910156 289.308594 231.238281 L 289.3125 231.238281 L 299.1875 243.523438 L 309.890625 230.5625 L 301.363281 220.238281 L 106.394531 220.238281 C 103.355469 220.238281 100.890625 217.773438 100.890625 214.738281 C 100.890625 211.703125 103.355469 209.238281 106.394531 209.238281 L 303.945312 209.238281 L 303.945312 209.246094 C 305.527344 209.246094 307.089844 209.925781 308.179688 211.238281 L 321.238281 227.050781 L 321.230469 227.058594 C 322.871094 229.039062 322.9375 231.972656 321.238281 234.035156 L 303.535156 255.484375 C 303.261719 255.851562 302.941406 256.1875 302.570312 256.488281 C 300.210938 258.386719 296.753906 258.007812 294.859375 255.648438 L 285.117188 243.53125 L 274.066406 257.769531 C 273.84375 258.085938 273.585938 258.386719 273.292969 258.65625 C 271.066406 260.710938 267.589844 260.566406 265.535156 258.335938 L 253.453125 245.246094 L 243.664062 257.96875 L 243.652344 257.964844 C 243.417969 258.269531 243.148438 258.550781 242.84375 258.808594 C 240.527344 260.753906 237.078125 260.453125 235.128906 258.144531 L 220.671875 240.972656 L 207.179688 254.460938 C 206.179688 255.496094 204.78125 256.136719 203.226562 256.136719 L 114.707031 256.136719 C 110.875 266.105469 104.097656 274.351562 95.609375 280.050781 C 86.03125 286.480469 74.269531 289.65625 62.09375 288.402344 C 49.910156 287.144531 39.039062 281.625 30.96875 273.363281 C 22.902344 265.109375 17.640625 254.117188 16.667969 241.910156 C 15.695312 229.710938 19.148438 218.027344 25.804688 208.601562 C 31.679688 200.273438 40.050781 193.707031 50.066406 190.09375 L 50.066406 72.433594 L 50.085938 72.433594 C 50.085938 70.84375 50.777344 69.261719 52.113281 68.183594 L 103.539062 26.355469 C 105.503906 24.648438 108.46875 24.535156 110.570312 26.222656 L 164.195312 69.535156 Z M 95.238281 63.648438 L 104.214844 63.648438 L 104.214844 72.625 L 95.238281 72.625 Z M 109.058594 63.648438 L 118.035156 63.648438 L 118.035156 72.625 L 109.058594 72.625 Z M 118.035156 77.472656 L 118.035156 86.449219 L 109.058594 86.449219 L 109.058594 77.472656 Z M 104.214844 86.449219 L 95.238281 86.449219 L 95.238281 77.472656 L 104.214844 77.472656 Z M 66.917969 225.800781 C 73.902344 225.800781 79.566406 231.460938 79.566406 238.449219 C 79.566406 245.433594 73.902344 251.097656 66.917969 251.097656 C 59.933594 251.097656 54.269531 245.4375 54.269531 238.449219 C 54.269531 231.464844 59.929688 225.800781 66.917969 225.800781 Z M 66.917969 225.800781 " fill-opacity="1" fill-rule="evenodd"/></g><g clip-path="url(#da3157278c)"><path fill="#000000" d="M 226.753906 196.164062 C 226.753906 199.199219 224.289062 201.664062 221.25 201.664062 L 180.34375 201.664062 C 177.308594 201.664062 174.84375 199.199219 174.84375 196.164062 L 174.84375 145.113281 L 122.648438 102.238281 L 82.136719 136.417969 C 79.824219 138.371094 76.363281 138.085938 74.402344 135.773438 C 72.445312 133.457031 72.730469 129.996094 75.046875 128.035156 L 119.046875 90.914062 L 119.050781 90.917969 C 121.035156 89.238281 123.996094 89.15625 126.074219 90.871094 L 183.453125 138.003906 C 184.894531 138.996094 185.839844 140.65625 185.839844 142.535156 L 185.839844 190.660156 L 215.746094 190.660156 L 215.746094 63.105469 L 167.667969 26.738281 L 149 41.328125 C 146.613281 43.1875 143.167969 42.765625 141.308594 40.382812 C 139.445312 37.996094 139.871094 34.554688 142.253906 32.691406 L 163.960938 15.730469 C 165.878906 14.007812 168.804688 13.832031 170.933594 15.4375 L 224.3125 55.808594 C 225.785156 56.800781 226.753906 58.476562 226.753906 60.378906 Z M 110.410156 133.769531 L 119.386719 133.769531 L 119.386719 142.746094 L 110.410156 142.746094 Z M 124.234375 133.769531 L 133.210938 133.769531 L 133.210938 142.746094 L 124.234375 142.746094 Z M 133.210938 147.59375 L 133.210938 156.570312 L 124.234375 156.570312 L 124.234375 147.59375 Z M 119.386719 156.570312 L 110.410156 156.570312 L 110.410156 147.59375 L 119.386719 147.59375 Z M 119.386719 156.570312 " fill-opacity="1" fill-rule="nonzero"/></g></g></g></svg>